<?xml version="1.0" encoding="UTF-8" standalone="no"?>
<!-- Created with Inkscape (http://www.inkscape.org/) -->

<svg
   xmlns:dc="http://purl.org/dc/elements/1.1/"
   xmlns:cc="http://creativecommons.org/ns#"
   xmlns:rdf="http://www.w3.org/1999/02/22-rdf-syntax-ns#"
   xmlns:svg="http://www.w3.org/2000/svg"
   xmlns="http://www.w3.org/2000/svg"
   xmlns:sodipodi="http://sodipodi.sourceforge.net/DTD/sodipodi-0.dtd"
   xmlns:inkscape="http://www.inkscape.org/namespaces/inkscape"
   width="140.27779mm"
   height="110.8577mm"
   viewBox="0 0 497.04727 392.80289"
   id="svg2"
   version="1.1"
   inkscape:version="0.91 r13725"
   sodipodi:docname="bulle.svg">
  <defs
     id="defs4" />
  <sodipodi:namedview
     id="base"
     pagecolor="#ffffff"
     bordercolor="#666666"
     borderopacity="1.0"
     inkscape:pageopacity="0.0"
     inkscape:pageshadow="2"
     inkscape:zoom="0.35"
     inkscape:cx="-187.059"
     inkscape:cy="141.65999"
     inkscape:document-units="px"
     inkscape:current-layer="layer1"
     showgrid="false"
     fit-margin-top="0"
     fit-margin-left="0"
     fit-margin-right="0"
     fit-margin-bottom="0"
     inkscape:window-width="1600"
     inkscape:window-height="847"
     inkscape:window-x="-8"
     inkscape:window-y="-8"
     inkscape:window-maximized="1" />
  <metadata
     id="metadata7">
    <rdf:RDF>
      <cc:Work
         rdf:about="">
        <dc:format>image/svg+xml</dc:format>
        <dc:type
           rdf:resource="http://purl.org/dc/dcmitype/StillImage" />
        <dc:title></dc:title>
      </cc:Work>
    </rdf:RDF>
  </metadata>
  <g
     inkscape:label="Calque 1"
     inkscape:groupmode="layer"
     id="layer1"
     transform="translate(-119.20186,-281.21932)">
    <path
       style="fill:#006cfd"
       d="m 416.84643,673.57631 c -0.006,-0.47135 6.59409,-17.20909 14.66665,-37.19498 9.9976,-24.75191 14.31432,-36.56236 13.53873,-37.0417 -0.62625,-0.38705 -43.56374,-1.48998 -95.41665,-2.45096 -186.8952,-3.4637 -200.21765,-3.79512 -201.45994,-5.01179 -1.26569,-1.23959 -29.85385,-282.81892 -28.95249,-285.16782 0.32421,-0.84489 3.40573,-1.51893 8.81643,-1.92847 12.0504,-0.91211 475.52557,-23.56127 482.13985,-23.56127 3.05806,0 5.78311,0.36083 6.05568,0.80185 0.57547,0.93114 -16.20512,316.0008 -16.94225,318.1049 -0.41624,1.18816 -5.94399,1.31509 -35.57445,0.81687 l -35.08163,-0.58988 -54.3308,36.44195 c -29.88195,20.04307 -55.03227,36.71113 -55.88961,37.04012 -0.85734,0.32899 -1.56362,0.21252 -1.56952,-0.25882 z"
       id="path4165"
       inkscape:connector-curvature="0" />
  </g>
</svg>
